<?xml version="1.0" standalone="no"?>
<!DOCTYPE svg PUBLIC "-//W3C//DTD SVG 20010904//EN"
 "http://www.w3.org/TR/2001/REC-SVG-20010904/DTD/svg10.dtd">
<svg version="1.0" xmlns="http://www.w3.org/2000/svg"
 width="418.000000pt" height="418.000000pt" viewBox="0 0 418.000000 418.000000"
 preserveAspectRatio="xMidYMid meet">

<g transform="translate(0.000000,418.000000) scale(0.100000,-0.100000)"
fill="#000000" stroke="none">
<path d="M0 2090 l0 -2090 710 0 c390 0 710 4 710 7 0 9 -52 86 -63 94 -5 3
-12 21 -17 40 -5 19 -12 44 -15 57 -5 13 -3 22 3 22 6 0 14 -9 17 -21 12 -37
50 -87 70 -93 10 -3 16 -8 12 -12 -9 -10 12 -46 24 -39 5 4 9 1 9 -5 0 -6 6
-8 13 -4 9 5 9 4 0 -6 -14 -15 -6 -40 12 -40 30 0 24 23 -18 73 -24 28 -47 60
-50 70 -4 9 -10 17 -15 17 -5 0 -15 14 -22 30 -7 17 -15 30 -19 30 -4 0 -12
12 -19 28 -6 15 -21 42 -32 61 -12 18 -20 45 -18 60 3 23 6 20 38 -33 19 -32
42 -68 50 -81 33 -49 56 -81 70 -97 8 -9 24 -29 35 -43 11 -15 30 -38 42 -52
12 -14 25 -34 28 -44 4 -12 16 -19 31 -19 24 0 24 0 7 27 -10 15 -25 35 -33
44 -8 9 -26 31 -40 49 -14 18 -33 40 -42 49 -10 8 -18 21 -18 28 0 6 -6 16
-13 20 -38 24 -177 269 -177 313 0 10 -4 22 -10 25 -5 3 -10 15 -10 26 0 11 5
17 10 14 6 -3 10 -13 10 -21 0 -22 40 -103 77 -156 18 -26 33 -51 33 -55 0 -5
18 -28 40 -52 22 -24 40 -47 40 -52 0 -13 31 -40 40 -34 14 9 -2 46 -26 62
-13 8 -24 22 -24 29 0 8 -6 17 -14 20 -8 3 -20 19 -26 35 -7 16 -16 29 -21 29
-5 0 -11 11 -15 25 -3 14 -10 25 -14 25 -5 0 -23 30 -40 68 -18 37 -36 74 -40
83 -5 9 -10 36 -13 60 -2 24 -2 34 0 22 2 -13 9 -23 14 -23 5 0 9 -8 9 -17 0
-20 49 -122 66 -138 5 -5 23 -30 39 -55 17 -25 36 -49 42 -53 7 -4 13 -14 13
-20 0 -7 8 -20 18 -28 9 -9 28 -31 42 -49 14 -18 31 -37 37 -44 7 -6 38 -41
69 -78 31 -38 61 -65 67 -61 6 3 7 1 3 -5 -4 -7 4 -22 18 -36 14 -13 26 -28
26 -33 0 -16 35 -43 56 -43 15 0 16 2 4 9 -8 6 -17 8 -21 6 -3 -3 -4 7 -1 20
3 18 0 25 -11 25 -8 0 -20 14 -27 30 -7 17 -16 30 -19 30 -4 0 -30 28 -58 63
-28 34 -67 80 -88 102 -55 61 -68 76 -106 125 -18 25 -36 47 -39 50 -10 9 -77
115 -94 147 -9 18 -16 41 -16 53 0 11 -4 20 -8 20 -9 0 -36 129 -28 137 2 2 7
-15 11 -38 4 -24 11 -50 15 -59 47 -97 75 -146 86 -153 8 -4 14 -13 14 -19 0
-10 25 -44 85 -113 19 -22 44 -52 55 -67 13 -16 27 -25 35 -21 11 3 13 1 10
-10 -6 -15 19 -47 36 -47 19 0 8 30 -26 65 -32 35 -72 81 -136 159 -80 97
-155 235 -144 264 5 14 7 14 15 2 5 -8 7 -23 4 -34 -4 -11 -2 -16 4 -12 5 3
20 -13 32 -36 12 -24 33 -56 46 -73 14 -16 33 -40 42 -53 9 -12 38 -44 63 -70
25 -26 48 -55 51 -63 4 -9 16 -19 27 -22 33 -8 27 30 -8 51 -15 9 -29 22 -31
27 -2 9 -69 90 -112 136 -10 11 -18 23 -18 28 0 5 -6 16 -13 23 -22 23 -57 85
-57 102 0 9 -4 16 -10 16 -5 0 -10 12 -10 26 0 14 4 23 10 19 6 -3 10 -15 10
-25 0 -10 3 -20 8 -22 4 -2 20 -23 37 -48 16 -25 40 -56 52 -69 13 -13 23 -28
23 -33 0 -6 7 -7 16 -4 8 3 12 2 9 -4 -3 -6 -2 -10 3 -10 5 0 12 -9 15 -20 6
-23 25 -26 33 -6 3 9 -15 36 -48 69 -29 30 -60 65 -68 77 -8 12 -25 36 -38 53
-12 17 -22 37 -22 44 0 7 -4 13 -10 13 -5 0 -10 10 -10 23 0 13 -5 28 -11 34
-6 6 -8 16 -5 22 9 14 38 1 32 -15 -3 -7 2 -18 10 -25 8 -7 12 -20 9 -30 -4
-13 -2 -17 7 -14 12 5 41 -32 60 -77 4 -10 14 -18 23 -18 8 0 15 -7 15 -16 0
-14 72 -94 84 -94 3 0 29 -25 60 -56 34 -35 59 -53 67 -48 8 4 9 3 5 -4 -7
-11 95 -122 111 -122 5 0 13 -10 18 -22 13 -28 31 -34 39 -12 8 21 -11 44 -36
44 -12 0 -18 6 -16 17 2 12 -8 24 -29 34 -18 9 -30 19 -27 22 11 10 -85 99
-97 91 -8 -4 -9 -3 -5 4 8 13 -40 66 -52 58 -4 -2 -9 4 -9 15 -1 10 2 19 8 19
5 0 9 4 9 10 0 6 -18 8 -42 6 -24 -2 -35 -2 -25 1 9 2 17 9 17 14 0 6 5 7 12
3 7 -4 8 -3 4 5 -4 6 -12 9 -17 6 -10 -7 -39 18 -39 34 0 18 13 12 44 -20 17
-16 36 -27 44 -24 22 8 55 -14 43 -29 -7 -9 -7 -16 1 -24 16 -16 -4 -15 -22 1
-8 6 -6 2 4 -10 9 -11 29 -24 43 -28 16 -4 23 -11 19 -20 -3 -9 0 -12 9 -9 14
6 33 -10 156 -129 38 -37 66 -56 75 -53 11 4 14 1 9 -14 -8 -24 40 -59 57 -42
16 16 -47 73 -70 65 -14 -6 -15 -5 -2 9 17 18 47 8 57 -18 3 -8 12 -14 20 -14
19 0 103 -71 103 -86 0 -7 8 -14 17 -17 10 -2 2 -4 -19 -3 -27 0 -43 -7 -65
-30 -16 -16 -49 -47 -74 -69 -25 -23 -50 -47 -55 -55 -5 -8 -18 -20 -29 -26
-11 -6 -20 -17 -20 -25 0 -7 -11 -19 -25 -26 -27 -14 -48 -73 -25 -73 7 0 15
7 19 15 7 19 35 19 42 0 5 -12 31 -15 144 -15 101 0 140 3 143 13 4 9 6 9 6 0
1 -16 431 -19 431 -3 0 6 9 10 20 10 11 0 20 -4 20 -10 0 -5 9 -10 20 -10 12
0 20 7 20 16 0 14 1 14 16 0 8 -9 24 -16 35 -16 18 0 19 2 4 30 -9 16 -21 30
-28 29 -9 0 -9 -2 1 -6 6 -2 12 -9 12 -15 0 -6 -6 -6 -15 2 -8 6 -13 15 -12
20 1 4 -7 16 -18 26 -12 11 -16 17 -10 14 14 -6 -12 17 -61 55 -21 17 -63 50
-94 75 -30 25 -67 53 -82 63 l-27 17 47 50 c26 28 73 74 105 101 46 41 57 47
57 31 0 -12 -9 -22 -21 -25 -13 -4 -20 -12 -17 -24 5 -25 43 -24 44 2 1 11 2
25 3 31 1 6 11 10 24 10 18 -1 22 4 22 26 -1 15 2 26 5 26 22 -2 32 6 41 32 6
17 17 30 25 30 8 0 14 4 14 10 0 14 71 85 92 93 13 4 16 2 11 -11 -3 -9 -13
-25 -22 -34 -9 -9 -27 -33 -41 -53 -23 -33 -86 -117 -140 -188 -22 -28 -20
-62 3 -55 6 3 14 13 16 23 2 10 14 28 28 38 16 13 23 26 20 38 -3 11 -1 17 3
14 5 -3 23 13 41 35 17 21 35 38 38 35 4 -2 8 6 8 17 1 11 11 30 21 42 11 11
25 31 31 43 13 26 41 20 34 -7 -3 -10 -14 -26 -24 -36 -10 -9 -19 -22 -19 -27
0 -6 -10 -21 -21 -33 -13 -14 -19 -30 -15 -39 9 -25 30 -12 36 21 3 17 11 29
20 29 8 0 17 11 18 24 2 13 12 26 23 28 12 3 19 14 19 29 0 31 17 40 26 12 4
-14 1 -25 -10 -33 -9 -7 -16 -20 -16 -30 0 -10 -6 -26 -14 -34 -20 -23 -32
-66 -16 -56 8 5 11 4 6 -3 -4 -6 -13 -9 -20 -6 -17 7 -32 -34 -18 -48 14 -14
32 -1 32 21 0 10 6 24 14 30 8 7 17 23 20 37 4 16 13 24 24 22 14 -2 16 3 14
31 -3 24 0 32 10 29 19 -7 22 -43 3 -58 -8 -7 -15 -21 -15 -32 0 -11 -7 -26
-15 -34 -8 -9 -15 -24 -15 -34 0 -10 -7 -21 -16 -24 -8 -3 -14 -14 -13 -23 3
-33 -1 -42 -15 -37 -9 3 -17 -3 -21 -16 -4 -11 -26 -50 -51 -87 -24 -36 -41
-69 -38 -74 3 -5 0 -8 -8 -7 -8 2 -13 -8 -13 -27 -1 -20 -6 -30 -15 -30 -18 0
-20 -47 -2 -53 7 -2 12 6 12 22 0 15 7 29 15 32 8 4 15 14 15 25 0 10 10 27
21 38 12 11 22 31 22 44 0 16 5 24 15 23 9 0 18 8 20 19 2 11 9 25 16 30 7 6
19 24 27 40 9 17 21 29 27 28 8 -2 12 10 12 33 0 21 4 33 10 29 6 -4 13 7 16
24 4 16 12 32 20 35 8 3 14 17 14 31 0 29 15 33 24 8 4 -11 1 -22 -8 -29 -9
-6 -16 -23 -16 -36 0 -14 -7 -31 -15 -38 -8 -7 -15 -20 -15 -30 0 -10 -7 -20
-15 -24 -8 -3 -15 -14 -15 -24 0 -10 -9 -27 -20 -37 -11 -10 -20 -24 -20 -32
0 -7 -9 -21 -20 -30 -11 -10 -20 -25 -20 -34 0 -9 -9 -24 -20 -34 -11 -10 -20
-24 -20 -30 0 -7 -7 -18 -15 -25 -8 -7 -15 -23 -15 -36 0 -13 -6 -27 -14 -31
-9 -6 -11 -15 -5 -30 11 -30 29 -29 29 1 0 32 27 55 36 31 4 -9 2 -27 -4 -41
-9 -19 -9 -24 1 -24 7 0 18 5 24 11 8 8 13 8 17 0 11 -17 49 -14 42 4 -3 8 0
14 7 12 6 -1 13 9 15 22 2 13 12 25 21 28 12 3 17 12 14 27 -3 13 2 28 11 35
9 8 16 19 16 27 0 7 9 22 21 33 12 11 18 24 15 30 -4 6 2 18 12 27 11 9 17 24
15 34 -7 26 14 34 22 9 4 -13 1 -27 -9 -38 -9 -10 -16 -25 -16 -34 0 -9 -4
-17 -10 -17 -5 0 -10 -11 -10 -24 0 -14 -7 -31 -15 -40 -8 -8 -16 -26 -17 -40
-1 -14 -8 -28 -15 -30 -7 -3 -13 -14 -13 -25 0 -11 -4 -23 -10 -26 -16 -10
-12 -25 6 -25 10 0 14 6 11 14 -3 8 2 16 15 19 15 4 18 11 13 26 -4 14 -1 23
9 27 10 4 16 18 16 36 0 25 3 29 20 25 16 -4 18 -1 14 23 -4 15 -1 30 4 34 16
9 25 -30 13 -53 -6 -11 -11 -29 -11 -40 0 -12 -4 -21 -10 -21 -16 0 -12 -50 5
-56 8 -4 15 -12 15 -20 0 -12 84 -14 530 -14 l530 0 0 2090 0 2090 -2090 0
-2090 0 0 -2090z m2396 1579 c33 -1 65 1 71 4 11 7 69 -9 89 -24 6 -5 13 -7
15 -5 2 2 11 -3 18 -12 13 -14 13 -15 -5 -10 -16 4 -19 -1 -21 -28 -1 -20 4
-35 13 -38 8 -3 14 -12 14 -20 0 -8 14 -17 33 -21 52 -12 80 -45 37 -45 -11 0
-20 3 -20 8 0 4 -9 13 -21 20 -18 12 -19 11 -10 -6 6 -11 24 -25 41 -30 16 -6
30 -16 30 -21 0 -6 12 -8 30 -4 18 3 30 1 30 -5 0 -6 15 -20 34 -31 19 -12 39
-36 46 -54 10 -27 13 -29 19 -13 14 36 61 -92 68 -186 3 -46 10 -88 14 -94 5
-6 7 -26 4 -45 -3 -19 -8 -56 -12 -83 -3 -28 -14 -57 -25 -68 -11 -11 -17 -26
-14 -33 8 -23 -25 -26 -59 -6 -31 18 -38 18 -111 5 -44 -7 -83 -14 -87 -14 -5
0 -6 -4 -3 -8 3 -5 -14 -9 -37 -10 -53 -3 -99 -21 -90 -36 3 -6 3 -8 -2 -4 -4
4 -14 3 -21 -3 -8 -7 -14 -6 -20 2 -4 7 -3 10 2 7 5 -3 17 3 27 14 12 13 13
18 4 18 -18 0 -52 -38 -52 -59 0 -9 -4 -21 -8 -28 -12 -19 3 -46 18 -33 9 7
15 7 19 1 4 -5 16 -8 29 -5 12 3 40 7 61 10 22 3 49 10 60 16 39 21 156 15
221 -12 63 -25 78 -37 70 -57 -2 -7 1 -12 8 -10 7 1 11 -4 10 -10 -2 -7 1 -13
5 -13 10 0 83 -88 86 -103 1 -7 7 -22 14 -34 10 -18 9 -24 -5 -32 -10 -6 -12
-11 -5 -11 13 0 17 -30 4 -30 -13 0 -1 -184 12 -198 5 -5 -19 -32 -28 -32 -3
0 -2 7 1 17 4 10 2 14 -4 10 -6 -4 -18 0 -27 8 -18 19 -33 1 -16 -20 7 -9 8
-15 0 -20 -5 -3 -10 1 -10 9 0 9 -7 16 -15 16 -18 0 -21 -50 -4 -67 10 -10 14
-87 9 -193 0 -8 5 -44 11 -80 6 -36 11 -76 11 -90 0 -13 7 -30 16 -38 10 -7
12 -11 5 -7 -8 3 -15 -4 -19 -19 -7 -30 2 -47 21 -39 10 3 15 -1 15 -12 0 -9
-4 -13 -10 -10 -6 4 -10 -6 -10 -24 0 -16 -4 -33 -10 -36 -5 -3 -10 -16 -9
-28 1 -20 2 -20 9 3 l8 25 1 -27 c1 -16 -3 -28 -9 -28 -5 0 -10 -18 -10 -39 0
-48 -9 -73 -23 -64 -6 4 -8 0 -5 -8 3 -8 0 -23 -8 -34 -8 -10 -14 -27 -14 -38
0 -10 -9 -21 -19 -24 -14 -3 -23 -21 -32 -56 -7 -29 -15 -44 -17 -34 -5 23
-12 22 -37 -6 -11 -12 -33 -33 -49 -45 -16 -12 -25 -22 -21 -22 4 0 -4 -12
-19 -26 -14 -15 -26 -33 -26 -40 0 -7 -9 -16 -20 -19 -11 -3 -20 -11 -20 -16
0 -5 -9 -9 -20 -9 -13 0 -18 -5 -14 -15 4 -9 0 -15 -9 -15 -9 0 -21 -8 -27
-17 -11 -17 -11 -17 -6 -1 3 10 1 20 -3 23 -5 3 -8 -9 -7 -25 1 -17 -1 -30 -6
-30 -4 0 -8 6 -8 13 -1 6 -7 -1 -15 -18 -11 -24 -14 -26 -15 -10 -1 11 -4 14
-7 8 -7 -18 -23 -16 -23 2 0 8 -4 15 -10 15 -5 0 -10 -4 -10 -9 0 -17 -76 -86
-91 -83 -9 2 -24 -4 -33 -13 -9 -9 -16 -13 -16 -9 0 3 -7 1 -15 -6 -17 -14
-131 -24 -149 -12 -6 4 -22 7 -36 8 -63 2 -71 5 -80 27 -5 12 -9 17 -9 11 -1
-7 -18 4 -38 22 -20 19 -42 34 -49 34 -7 0 -16 9 -19 20 -6 18 -17 24 -37 21
-5 0 -8 4 -8 10 0 5 -5 7 -12 3 -8 -5 -9 -2 -5 9 3 9 2 19 -3 22 -6 4 -10 -6
-10 -22 -1 -26 -1 -27 -12 -8 -16 30 -18 31 -28 15 -7 -10 -10 -11 -10 -2 0 6
-9 12 -21 12 -12 0 -17 4 -14 11 4 6 1 9 -6 8 -16 -3 -68 20 -87 38 -7 7 -18
13 -23 13 -5 0 -12 12 -15 28 -4 15 -18 38 -31 51 l-24 25 -6 -22 c-3 -12 -9
-19 -14 -17 -4 3 -6 13 -3 23 5 14 4 15 -5 2 -12 -17 -9 -20 -56 55 -21 33
-41 62 -45 65 -4 3 -10 19 -14 35 -4 17 -13 37 -20 45 -7 8 -18 44 -25 80 -7
36 -17 88 -23 115 -5 28 -7 75 -4 105 3 30 8 69 10 85 1 17 4 36 4 43 1 7 7
10 12 7 6 -3 10 -3 11 2 4 52 6 183 1 179 -10 -10 -32 47 -26 67 4 11 1 23 -7
29 -11 7 -11 11 -1 15 6 2 12 9 12 14 0 6 -4 7 -10 4 -5 -3 -12 7 -16 22 -3
15 -7 34 -10 41 -2 7 1 10 6 7 6 -3 10 1 10 9 0 9 -4 16 -9 16 -10 0 -21 76
-26 185 -2 46 0 71 4 60 7 -17 9 -16 15 13 5 22 13 32 27 32 10 0 19 4 19 10
0 5 11 12 25 16 14 3 25 10 25 16 0 5 -5 6 -12 2 -7 -4 -8 -3 -4 4 4 7 17 12
29 13 13 0 16 3 8 6 -14 6 82 63 106 63 8 0 11 4 8 10 -10 16 41 23 123 16
136 -12 253 -13 248 -1 -2 5 -9 9 -15 8 -6 -2 -10 3 -8 10 1 6 -4 11 -12 9
-11 -2 -12 0 -3 10 7 9 8 19 2 28 -6 8 -10 11 -10 7 0 -5 -6 -5 -12 0 -7 4
-19 8 -26 9 -22 4 -28 14 -13 23 21 13 -107 3 -197 -15 -6 -1 -10 2 -6 7 3 5
-2 9 -11 9 -9 0 -13 5 -10 10 3 6 1 10 -4 10 -6 0 -11 -4 -11 -10 0 -5 -7 -10
-15 -10 -8 0 -15 5 -15 11 0 6 -6 9 -12 7 -7 -3 -13 -10 -13 -17 0 -17 -24
-29 -45 -24 -10 3 -21 0 -24 -6 -11 -17 -25 -13 -24 7 3 35 -13 93 -25 89 -6
-2 -15 -18 -19 -35 -5 -18 -13 -32 -18 -32 -9 0 -15 51 -10 94 1 10 -4 23 -12
27 -10 7 -10 11 -1 17 7 4 9 13 5 19 -4 6 -7 46 -6 87 0 41 -2 73 -7 71 -4 -3
-5 4 -2 15 3 12 0 20 -7 20 -7 0 -9 8 -5 20 4 12 2 27 -5 35 -8 9 -8 15 0 20
8 5 8 11 -1 21 -9 11 -8 19 5 39 9 13 16 37 16 53 0 15 4 32 9 37 4 6 11 24
14 40 4 17 4 24 1 18 -8 -19 -21 -16 -22 5 -1 28 18 67 40 83 12 8 35 26 52
40 30 25 44 31 152 63 80 24 290 67 347 71 29 2 65 8 80 14 16 6 32 9 36 6 4
-2 21 -1 36 4 26 6 68 6 281 0z m378 -234 c3 -8 1 -15 -4 -15 -6 0 -10 7 -10
15 0 8 2 15 4 15 2 0 6 -7 10 -15z m-1439 -315 c3 -5 1 -10 -4 -10 -6 0 -11 5
-11 10 0 6 2 10 4 10 3 0 8 -4 11 -10z m41 -387 c-11 -11 -17 4 -9 23 7 18 8
18 11 1 2 -10 1 -21 -2 -24z m34 -3 c0 -5 -4 -10 -10 -10 -5 0 -10 5 -10 10 0
6 5 10 10 10 6 0 10 -4 10 -10z m-30 -26 c0 -8 -4 -12 -10 -9 -5 3 -10 10 -10
16 0 5 5 9 10 9 6 0 10 -7 10 -16z m-37 -99 c-5 -13 -23 -22 -23 -11 0 15 14
35 21 31 4 -3 6 -12 2 -20z m1915 -252 c-3 -46 -8 -86 -12 -90 -14 -14 -25 22
-21 71 4 44 3 46 -4 16 -7 -29 -9 -23 -10 38 -1 47 3 71 9 67 6 -3 13 1 17 11
13 35 25 -29 21 -113z m-2128 83 c0 -3 -4 -8 -10 -11 -5 -3 -10 -1 -10 4 0 6
5 11 10 11 6 0 10 -2 10 -4z m20 -32 c0 -8 -5 -12 -10 -9 -6 4 -8 11 -5 16 9
14 15 11 15 -7z m-49 -55 c28 -32 33 -80 18 -172 l-13 -82 -18 105 c-9 58 -20
120 -23 138 -7 38 8 43 36 11z m2079 -39 c0 -5 -4 -10 -10 -10 -5 0 -10 5 -10
10 0 6 5 10 10 10 6 0 10 -4 10 -10z m6 -35 c30 -29 47 -146 24 -160 -5 -3
-11 0 -11 7 -1 7 -2 18 -4 23 -1 6 -3 18 -3 28 -1 10 -6 16 -10 13 -4 -2 -8 3
-9 12 -1 9 -4 34 -8 55 -8 40 -2 46 21 22z m-2004 -37 c7 -17 1 -123 -7 -149
-6 -17 -3 -20 12 -17 12 3 17 11 16 26 -2 12 2 22 7 22 17 0 11 -42 -7 -56
-13 -10 -15 -16 -7 -21 6 -5 15 -27 18 -49 7 -38 4 -45 -23 -73 -17 -17 -32
-31 -35 -31 -3 0 -2 16 1 35 4 24 2 35 -7 35 -9 0 -10 3 -1 14 9 11 9 17 -2
27 -35 36 -38 97 -8 207 11 40 34 56 43 30z m1745 -110 c-3 -8 -6 -5 -6 6 -1
11 2 17 5 13 3 -3 4 -12 1 -19z m259 -33 c4 -8 3 -23 -1 -32 -8 -17 -8 -17
-12 0 -3 9 -8 17 -13 17 -5 0 -7 7 -4 15 4 8 10 15 15 15 5 0 12 -7 15 -15z
m-1808 -130 c-3 -3 -9 2 -12 12 -6 14 -5 15 5 6 7 -7 10 -15 7 -18z m-141 -83
c-1 -40 -5 -50 -24 -59 -16 -8 -23 -8 -23 -1 0 9 42 106 46 108 1 0 1 -22 1
-48z m1798 -862 c3 -5 1 -10 -4 -10 -6 0 -11 5 -11 10 0 6 2 10 4 10 3 0 8 -4
11 -10z m-1675 -4 c0 -3 -4 -8 -10 -11 -5 -3 -10 -1 -10 4 0 6 5 11 10 11 6 0
10 -2 10 -4z m8 -44 c2 -7 -3 -12 -12 -12 -9 0 -16 7 -16 16 0 17 22 14 28 -4z
m1672 -2 c0 -5 -4 -10 -10 -10 -5 0 -10 5 -10 10 0 6 5 10 10 10 6 0 10 -4 10
-10z m0 -50 c0 -13 -5 -18 -15 -14 -8 4 -15 12 -15 20 0 8 7 14 15 14 8 0 15
-9 15 -20z m-10 -57 c0 -7 -7 -13 -15 -13 -15 0 -21 31 -8 43 8 8 23 -12 23
-30z m-1693 5 c-3 -8 -6 -5 -6 6 -1 11 2 17 5 13 3 -3 4 -12 1 -19z m-30 -10
c-3 -8 -6 -5 -6 6 -1 11 2 17 5 13 3 -3 4 -12 1 -19z m1701 -40 c-2 -13 -7
-23 -13 -23 -5 0 -11 10 -13 23 -2 15 2 22 13 22 11 0 15 -7 13 -22z m-1688
-3 c0 -8 -4 -15 -10 -15 -5 0 -10 7 -10 15 0 8 5 15 10 15 6 0 10 -7 10 -15z
m1717 -17 c-3 -7 -5 -2 -5 12 0 14 2 19 5 13 2 -7 2 -19 0 -25z m-1512 13 c3
-5 2 -12 -3 -15 -5 -3 -9 1 -9 9 0 17 3 19 12 6z m1455 -50 c0 -22 -16 -36
-24 -22 -8 12 3 41 15 41 5 0 9 -9 9 -19z m50 -5 c0 -8 -4 -18 -10 -21 -5 -3
-10 3 -10 14 0 12 5 21 10 21 6 0 10 -6 10 -14z m33 -1 c4 -8 2 -17 -3 -20 -6
-4 -10 3 -10 14 0 25 6 27 13 6z m-1806 -27 c-3 -7 -5 -2 -5 12 0 14 2 19 5
13 2 -7 2 -19 0 -25z m1840 10 c-3 -8 -6 -5 -6 6 -1 11 2 17 5 13 3 -3 4 -12
1 -19z m-193 -3 c-6 -16 -24 -21 -24 -7 0 11 11 22 21 22 5 0 6 -7 3 -15z m46
-40 c0 -17 -17 -28 -30 -20 -7 4 -7 13 0 26 12 21 30 17 30 -6z m50 0 c0 -14
-4 -25 -10 -25 -11 0 -14 33 -3 43 11 11 13 8 13 -18z m50 -2 c0 -20 -3 -24
-11 -16 -7 7 -9 19 -6 27 10 24 17 19 17 -11z m-1318 -27 c-3 -5 2 -7 11 -3 9
3 18 0 21 -9 3 -8 10 -14 16 -14 6 0 8 5 4 12 -4 7 -3 8 4 4 7 -4 12 -14 12
-22 0 -8 4 -12 10 -9 6 3 7 -1 4 -10 -5 -12 -9 -13 -20 -4 -12 10 -13 8 -7 -7
7 -18 6 -18 -11 -1 -9 9 -22 17 -27 17 -6 0 -7 5 -3 12 4 7 3 8 -4 4 -6 -4
-24 0 -39 8 -16 8 -24 15 -19 16 5 0 3 7 -4 15 -10 12 -10 15 4 15 9 0 16 -5
16 -11 0 -5 4 -8 10 -4 5 3 6 13 3 23 -4 13 -2 13 10 -3 8 -11 13 -24 9 -29z
m1361 29 c4 -8 2 -17 -3 -20 -6 -4 -10 3 -10 14 0 25 6 27 13 6z m-1856 -27
c-3 -7 -5 -2 -5 12 0 14 2 19 5 13 2 -7 2 -19 0 -25z m1798 -31 c0 -26 -20
-25 -23 2 -3 16 1 22 10 19 7 -3 13 -12 13 -21z m53 -5 c4 -25 -13 -30 -22 -6
-9 25 -7 36 7 32 6 -3 13 -14 15 -26z m29 6 c-3 -8 -6 -5 -6 6 -1 11 2 17 5
13 3 -3 4 -12 1 -19z m-1870 -20 c-3 -7 -5 -2 -5 12 0 14 2 19 5 13 2 -7 2
-19 0 -25z m973 -8 c0 -5 -7 -10 -16 -10 -8 0 -12 5 -9 10 3 6 10 10 16 10 5
0 9 -4 9 -10z m850 -36 c0 -14 -4 -22 -10 -19 -5 3 -10 17 -10 31 0 14 4 22
10 19 6 -3 10 -17 10 -31z m50 -2 c0 -7 -4 -10 -10 -7 -5 3 -10 16 -10 28 0
18 2 19 10 7 5 -8 10 -21 10 -28z m-1260 8 c0 -5 -2 -10 -4 -10 -3 0 -8 5 -11
10 -3 6 -1 10 4 10 6 0 11 -4 11 -10z m385 -6 c18 -11 33 -14 52 -8 53 15 73
14 73 -4 0 -13 2 -14 9 -4 6 10 11 5 21 -17 7 -17 16 -28 21 -25 5 3 9 -1 10
-8 0 -7 4 -4 9 7 l9 20 1 -20 c2 -11 2 -27 1 -35 -1 -10 5 -7 15 8 9 12 26 22
37 22 20 0 20 0 1 -22 l-19 -21 28 18 c15 9 27 24 27 32 0 10 6 13 15 9 11 -4
19 3 25 19 5 14 15 25 22 25 9 0 8 -3 -2 -10 -10 -7 -11 -10 -2 -10 7 0 15 6
18 14 6 16 34 11 34 -6 0 -5 -15 -16 -32 -24 -59 -27 -78 -41 -70 -49 4 -5 2
-5 -5 -1 -6 3 -21 -3 -32 -15 -11 -12 -24 -18 -30 -14 -6 3 -11 2 -11 -3 0 -5
-10 -12 -22 -16 -17 -4 -20 -8 -10 -14 12 -8 -14 -23 -83 -47 -26 -10 -172 -8
-188 2 -6 4 -16 8 -21 8 -5 0 -11 7 -13 15 -4 13 -3 13 7 0 10 -13 11 -13 7 0
-2 8 -12 16 -23 16 -10 1 -23 2 -28 3 -5 1 -3 8 4 16 10 12 10 15 -4 15 -9 0
-16 -6 -17 -12 0 -10 -2 -10 -6 0 -2 6 -11 12 -19 12 -17 0 -18 16 -1 24 6 4
2 4 -11 2 -12 -2 -20 0 -16 5 3 5 14 9 26 9 17 0 18 2 8 15 -10 12 -10 15 4
15 9 0 16 -6 17 -12 0 -10 2 -10 6 0 4 10 9 9 20 -5 13 -17 14 -16 8 10 -3 16
-1 27 5 27 6 0 8 5 5 10 -4 6 -11 8 -16 5 -5 -4 -9 1 -9 11 0 15 2 15 24 0 14
-9 27 -12 30 -7 4 5 16 7 28 3 13 -3 19 -1 15 6 -6 8 1 16 21 21 1 1 14 -6 27
-15z m-355 -9 c-7 -9 -15 -13 -19 -10 -3 3 1 10 9 15 21 14 24 12 10 -5z m177
-1 c-3 -3 -12 -4 -19 -1 -8 3 -5 6 6 6 11 1 17 -2 13 -5z m1033 -41 c0 -19 -3
-24 -10 -17 -6 6 -8 18 -4 27 9 24 14 21 14 -10z m-1165 -41 c-3 -3 -11 0 -18
7 -9 10 -8 11 6 5 10 -3 15 -9 12 -12z m1148 -29 c-4 -10 -9 -11 -16 -4 -5 5
-7 18 -3 28 6 14 9 15 16 4 4 -8 6 -21 3 -28z m34 -5 c-3 -7 -5 -2 -5 12 0 14
2 19 5 13 2 -7 2 -19 0 -25z m-1829 -43 c-3 -3 -9 2 -12 12 -6 14 -5 15 5 6 7
-7 10 -15 7 -18z m1772 6 c0 -22 -16 -36 -24 -22 -8 12 3 41 15 41 5 0 9 -9 9
-19z m42 -13 c-9 -9 -12 -7 -12 12 0 19 3 21 12 12 9 -9 9 -15 0 -24z m35 0
c-3 -7 -5 -2 -5 12 0 14 2 19 5 13 2 -7 2 -19 0 -25z m-116 -71 c-16 -16 -26
20 -10 40 13 15 14 14 17 -7 2 -12 -1 -27 -7 -33z m62 6 c-3 -7 -9 -13 -13
-13 -5 0 -10 -12 -12 -27 -3 -32 -21 -34 -26 -3 -2 11 3 23 12 26 9 3 16 16
16 28 0 13 3 26 7 30 9 9 22 -25 16 -41z m47 20 c0 -20 -3 -24 -11 -16 -7 7
-9 19 -6 27 10 24 17 19 17 -11z m-890 -43 c0 -5 -9 -10 -21 -10 -11 0 -17 5
-14 10 3 6 13 10 21 10 8 0 14 -4 14 -10z m84 1 c3 -5 -5 -11 -17 -13 -15 -3
-24 0 -24 9 0 15 33 18 41 4z m76 -1 c-19 -13 -30 -13 -30 0 0 6 10 10 23 10
18 0 19 -2 7 -10z m600 -20 c0 -10 -5 -22 -10 -25 -6 -4 -17 -22 -25 -41 -8
-19 -19 -34 -24 -34 -6 0 -11 -7 -11 -16 0 -9 -9 -27 -20 -41 -12 -16 -18 -34
-15 -45 8 -23 -23 -25 -32 -2 -6 15 19 74 46 107 18 22 36 52 56 95 16 34 35
35 35 2z m30 -60 c0 -10 -4 -21 -9 -24 -5 -3 -30 -49 -56 -102 -34 -70 -49
-93 -56 -83 -13 21 -11 45 6 59 8 7 15 21 15 32 0 10 7 21 15 24 8 4 15 15 15
25 0 11 9 27 20 36 11 10 20 25 20 34 0 8 3 19 6 22 11 10 24 -3 24 -23z
m-897 -65 c-3 -9 -8 -14 -10 -11 -3 3 -2 9 2 15 9 16 15 13 8 -4z m112 -104
c3 -5 2 -12 -3 -15 -5 -3 -9 1 -9 9 0 17 3 19 12 6z"/>
<path d="M2710 3421 c0 -5 -8 -11 -17 -13 -16 -3 -15 -5 4 -16 16 -9 24 -9 29
0 5 7 3 8 -6 3 -9 -5 -10 -2 -5 14 3 11 4 21 1 21 -3 0 -6 -4 -6 -9z"/>
<path d="M1413 3362 c-1 -22 0 -24 9 -8 6 10 6 22 2 26 -5 5 -10 -3 -11 -18z"/>
<path d="M2757 3379 c7 -7 15 -10 18 -7 3 3 -2 9 -12 12 -14 6 -15 5 -6 -5z"/>
<path d="M2790 3363 c0 -4 5 -15 10 -23 8 -13 10 -13 10 2 0 9 -4 20 -10 23
-5 3 -10 3 -10 -2z"/>
<path d="M1540 3339 c0 -5 5 -7 10 -4 6 3 10 8 10 11 0 2 -4 4 -10 4 -5 0 -10
-5 -10 -11z"/>
<path d="M2740 3285 c0 -8 7 -15 15 -15 8 0 15 4 15 9 0 5 -7 11 -15 15 -9 3
-15 0 -15 -9z"/>
<path d="M1881 2734 c6 -7 15 -11 20 -9 4 3 15 -8 24 -24 19 -38 33 -46 30
-18 -4 38 -5 40 -11 34 -3 -3 -14 2 -24 11 -25 21 -56 26 -39 6z"/>
<path d="M2394 2715 c-9 -37 0 -40 13 -5 6 17 7 30 2 30 -5 0 -11 -11 -15 -25z"/>
<path d="M2519 2611 c-40 -8 -81 -35 -119 -77 l-25 -28 37 22 c47 26 56 15 17
-22 -35 -33 -38 -51 -6 -41 12 3 28 7 35 7 7 1 11 7 8 14 -6 14 17 37 27 27
12 -11 8 -43 -5 -43 -6 0 -9 -3 -5 -6 3 -3 11 -2 19 2 7 4 27 8 46 7 24 0 32
3 28 13 -3 8 1 14 10 14 11 0 14 -5 10 -16 -5 -14 -1 -16 31 -11 21 3 47 8 58
11 11 4 2 -2 -19 -12 -30 -14 -36 -21 -26 -27 9 -5 15 -4 18 3 3 9 9 9 24 1
16 -9 19 -8 13 2 -6 8 -4 11 7 6 9 -3 21 0 27 6 10 9 17 7 31 -10 10 -13 23
-23 29 -23 6 0 11 -4 11 -10 0 -5 5 -10 10 -10 6 0 10 9 10 20 0 11 12 25 27
34 l28 14 -28 13 c-15 7 -27 18 -27 24 0 7 -7 18 -15 25 -13 10 -13 15 -3 21
8 5 -2 15 -32 28 -54 24 -102 28 -94 7 6 -16 -27 -17 -38 -1 -5 6 -8 6 -8 -2
0 -6 -12 -10 -27 -8 -15 1 -45 -4 -68 -12 -92 -33 -97 -21 -9 23 52 25 51 26
-7 15z m209 -33 c-2 -6 -10 -13 -16 -14 -9 -2 -9 -1 -1 3 8 4 7 8 -2 14 -11 7
-10 9 4 9 10 0 17 -5 15 -12z m-128 -43 c0 -8 -9 -15 -20 -15 -11 0 -20 7 -20
15 0 8 9 15 20 15 11 0 20 -7 20 -15z"/>
<path d="M2598 2613 c12 -2 30 -2 40 0 9 3 -1 5 -23 4 -22 0 -30 -2 -17 -4z"/>
<path d="M1720 2558 c0 -10 -7 -18 -16 -18 -8 0 -12 5 -9 10 11 17 -34 11 -76
-10 -22 -12 -44 -32 -49 -45 -5 -14 -14 -25 -20 -25 -5 0 -9 -6 -7 -12 1 -7
-3 -12 -10 -11 -7 2 -10 -4 -7 -12 4 -8 10 -12 15 -9 6 3 20 -1 33 -9 15 -11
27 -12 39 -5 10 5 40 8 67 6 54 -5 59 6 9 16 -18 3 -29 9 -26 12 3 4 26 2 49
-3 24 -6 68 -8 98 -4 50 5 55 8 60 34 5 26 6 27 25 12 20 -15 20 -15 1 -30
-23 -17 -5 -20 25 -5 13 7 19 7 19 0 0 -5 7 -10 15 -10 19 0 19 10 -1 38 -9
13 -11 22 -4 22 6 0 8 5 4 11 -9 16 -105 59 -129 58 -11 0 -14 -3 -7 -6 6 -2
12 -9 12 -14 0 -12 -93 0 -102 14 -5 8 -8 6 -8 -5z m165 -25 c18 -14 18 -15 2
-9 -10 3 -23 6 -28 6 -5 0 -9 5 -9 10 0 14 12 12 35 -7z m-75 -33 c0 -5 -5
-12 -11 -16 -14 -8 -33 11 -25 25 7 11 36 4 36 -9z m-10 -40 c0 -5 -5 -10 -11
-10 -5 0 -7 5 -4 10 3 6 8 10 11 10 2 0 4 -4 4 -10z"/>
<path d="M2298 2499 c-12 -31 31 -197 55 -211 28 -15 24 9 -20 110 -8 18 -17
51 -21 75 -5 26 -10 36 -14 26z"/>
<path d="M2084 2415 c3 -21 16 -31 16 -12 0 9 -4 18 -9 21 -5 4 -8 -1 -7 -9z"/>
<path d="M2760 2409 c0 -5 5 -7 10 -4 6 3 10 8 10 11 0 2 -4 4 -10 4 -5 0 -10
-5 -10 -11z"/>
<path d="M2081 2354 c0 -11 3 -14 6 -6 3 7 2 16 -1 19 -3 4 -6 -2 -5 -13z"/>
<path d="M2392 2198 c-7 -7 -12 -18 -12 -26 0 -8 -6 -12 -15 -8 -9 3 -15 0
-15 -10 0 -11 6 -13 19 -9 14 4 21 0 24 -12 4 -17 5 -17 6 0 1 10 9 17 20 17
22 0 27 -11 36 -87 7 -58 8 -57 -57 -66 -30 -5 -37 -2 -41 14 -3 10 -10 19
-17 19 -6 0 -8 -4 -5 -10 3 -5 0 -7 -9 -4 -10 4 -17 -2 -21 -19 -5 -17 -12
-24 -21 -20 -8 3 -14 0 -14 -7 0 -21 -28 -40 -58 -40 -16 0 -50 11 -77 25 -54
29 -94 33 -148 16 -40 -14 -67 -3 -67 25 0 8 -4 14 -9 14 -5 0 -7 10 -4 23 4
20 3 21 -7 3 -10 -14 -9 -32 0 -77 7 -33 16 -59 21 -59 4 0 6 -9 4 -20 -2 -11
0 -18 6 -15 5 4 9 2 9 -4 0 -5 -3 -11 -7 -14 -5 -2 -2 -2 6 0 8 2 19 -2 24 -9
6 -9 7 -6 4 10 -3 12 -1 20 4 16 5 -3 9 0 9 7 0 8 6 6 18 -4 15 -14 23 -15 50
-5 19 8 30 18 28 25 -4 8 3 13 20 13 13 0 27 -6 29 -12 3 -8 22 -13 48 -12 52
1 67 -4 67 -22 0 -8 3 -14 8 -14 4 -1 31 -3 59 -5 29 -2 55 0 58 6 4 5 15 9
26 9 11 0 17 4 14 10 -3 5 0 8 7 5 7 -2 32 -6 56 -9 32 -4 41 -3 35 7 -4 6 -8
43 -9 81 -3 81 -12 136 -23 136 -4 0 -8 13 -9 30 0 16 -6 35 -12 42 -5 7 -19
23 -29 35 -13 17 -21 19 -29 11z"/>
<path d="M1765 2000 c-3 -5 -1 -10 4 -10 6 0 11 5 11 10 0 6 -2 10 -4 10 -3 0
-8 -4 -11 -10z"/>
<path d="M2648 1924 c6 -11 19 -27 28 -35 16 -13 16 -12 6 7 -6 11 -19 27 -28
35 -16 13 -16 12 -6 -7z"/>
<path d="M1660 1845 c-13 -14 -19 -25 -13 -25 12 0 48 38 41 45 -2 3 -15 -6
-28 -20z"/>
<path d="M2700 1865 c0 -6 4 -15 9 -20 5 -6 18 -28 30 -50 12 -22 21 -33 21
-25 0 8 -14 35 -30 60 -16 25 -30 40 -30 35z"/>
<path d="M2431 1703 c-6 -10 -11 -13 -11 -8 0 6 -5 3 -10 -5 -6 -10 -10 -11
-10 -2 0 6 -5 12 -11 12 -5 0 -7 -5 -3 -12 5 -8 2 -9 -9 -5 -10 4 -23 10 -31
13 -7 3 -20 -1 -28 -9 -8 -8 -29 -18 -47 -22 -21 -4 -31 -11 -27 -20 3 -8 -4
-15 -17 -18 -12 -2 4 -3 37 -2 32 2 63 8 69 14 14 14 40 14 55 -1 9 -9 15 -9
24 0 16 16 47 15 54 -2 3 -8 13 -12 23 -9 20 5 34 -18 24 -42 -9 -25 -78 -56
-92 -42 -8 8 -11 7 -11 -6 0 -9 -7 -17 -16 -17 -8 0 -12 -4 -9 -10 9 -14 -1
-13 -35 5 -21 11 -29 12 -32 3 -3 -7 -27 -18 -54 -25 -35 -8 -39 -11 -16 -9
21 2 36 -2 39 -10 2 -7 11 -10 19 -7 17 6 38 -15 41 -42 1 -11 0 -15 -3 -8 -3
7 -12 9 -20 6 -13 -5 -13 -7 -2 -14 10 -7 9 -9 -5 -9 -11 0 -17 -5 -14 -12 2
-7 13 -12 23 -10 10 1 26 3 35 4 9 1 15 8 12 15 -4 9 0 11 13 6 13 -5 15 -3 9
7 -6 10 -4 12 8 7 9 -3 18 -1 21 6 3 9 5 9 5 0 2 -29 95 66 120 123 11 23 28
51 40 63 32 32 26 70 -12 84 -10 4 -16 10 -14 14 3 5 -24 9 -58 11 -52 2 -66
-1 -74 -15z m-114 -219 c-3 -3 -12 -4 -19 -1 -8 3 -5 6 6 6 11 1 17 -2 13 -5z
m61 -8 c-7 -8 -15 -12 -17 -11 -5 6 10 25 20 25 5 0 4 -6 -3 -14z"/>
<path d="M1908 1695 c-3 -3 -38 -14 -79 -24 -97 -25 -106 -40 -54 -90 22 -21
41 -44 43 -51 2 -7 16 -41 33 -76 23 -50 33 -62 46 -57 13 5 15 2 10 -11 -8
-21 9 -56 26 -55 9 0 9 2 0 5 -7 3 -9 12 -6 20 3 8 -1 14 -8 14 -11 0 -11 2 1
9 8 6 18 7 24 4 5 -3 29 -8 52 -10 36 -3 43 -1 38 12 -4 8 -12 15 -20 15 -8 0
-11 6 -7 17 5 12 3 14 -8 8 -8 -5 -11 -4 -6 1 5 5 14 9 20 10 43 4 79 34 41
34 -8 0 -12 5 -9 10 4 6 -5 10 -19 10 -14 0 -26 5 -26 10 0 6 -5 10 -11 10 -5
0 -7 -4 -4 -10 3 -6 -5 -10 -19 -10 -14 0 -28 5 -31 10 -3 6 -16 10 -28 10
-24 0 -74 46 -63 58 4 3 11 0 16 -8 8 -12 10 -11 10 6 0 27 10 36 26 23 9 -8
15 -5 23 10 10 18 19 19 92 16 99 -5 130 5 127 39 -2 22 -6 24 -38 21 -19 -2
-43 -6 -52 -10 -9 -4 -25 -2 -36 4 -11 6 -22 7 -24 2 -2 -5 -18 -6 -35 -4 -18
3 -31 9 -28 13 6 10 -9 22 -17 15z"/>
<path d="M2200 1501 c0 -14 -89 -24 -105 -11 -8 7 -15 7 -19 1 -9 -14 48 -24
94 -16 25 4 40 12 40 21 0 8 -2 14 -5 14 -3 0 -5 -4 -5 -9z"/>
<path d="M2832 1245 c0 -16 2 -22 5 -12 2 9 2 23 0 30 -3 6 -5 -1 -5 -18z"/>
<path d="M2387 511 c-4 -17 -3 -21 5 -13 5 5 8 16 6 23 -3 8 -7 3 -11 -10z"/>
<path d="M2340 505 c0 -13 4 -14 20 -5 11 6 20 13 20 15 0 3 -9 5 -20 5 -11 0
-20 -7 -20 -15z"/>
<path d="M2300 470 c0 -5 7 -10 15 -10 8 0 15 5 15 10 0 6 -7 10 -15 10 -8 0
-15 -4 -15 -10z"/>
<path d="M2230 460 c19 -13 30 -13 30 0 0 6 -10 10 -22 10 -19 0 -20 -2 -8
-10z"/>
<path d="M2240 422 c0 -10 4 -12 13 -4 6 5 21 12 32 15 11 3 6 5 -12 4 -21 -1
-33 -6 -33 -15z"/>
<path d="M2298 406 c-15 -8 -35 -16 -45 -19 -10 -3 0 -5 22 -6 31 0 37 2 25
10 -12 9 -11 10 8 6 15 -3 22 0 22 9 0 17 1 17 -32 0z"/>
<path d="M1640 710 c8 -5 20 -10 25 -10 6 0 3 5 -5 10 -8 5 -19 10 -25 10 -5
0 -3 -5 5 -10z"/>
<path d="M1565 571 c2 -9 4 -19 4 -23 1 -12 29 -9 37 3 7 12 -9 32 -30 35 -8
1 -13 -5 -11 -15z"/>
<path d="M1623 514 c-9 -23 13 -40 32 -24 12 10 13 16 4 26 -15 18 -28 18 -36
-2z"/>
<path d="M1681 466 c-14 -17 -7 -36 14 -36 22 0 29 20 13 36 -13 13 -16 13
-27 0z"/>
<path d="M2791 458 c-5 -13 -7 -26 -4 -31 8 -13 43 13 43 33 0 27 -29 25 -39
-2z"/>
<path d="M2856 421 c-17 -19 -21 -47 -7 -55 11 -7 26 12 34 41 7 30 -6 37 -27
14z"/>
<path d="M1625 403 c-4 -12 1 -24 15 -35 22 -18 40 -16 40 3 0 6 -5 7 -12 3
-7 -4 -8 -3 -4 5 8 12 -10 41 -24 41 -4 0 -11 -8 -15 -17z"/>
<path d="M1733 404 c-9 -23 13 -40 32 -24 12 10 13 16 4 26 -15 18 -28 18 -36
-2z"/>
<path d="M2753 404 c-8 -21 13 -42 28 -27 13 13 5 43 -11 43 -6 0 -13 -7 -17
-16z"/>
<path d="M2546 393 c-4 -9 -1 -23 7 -30 12 -12 16 -12 26 1 16 19 8 46 -13 46
-7 0 -17 -8 -20 -17z"/>
<path d="M1897 373 c-9 -14 16 -56 34 -59 24 -3 18 36 -8 53 -11 8 -23 10 -26
6z"/>
<path d="M1791 352 c-8 -15 -7 -23 4 -32 16 -13 35 -6 35 14 0 8 -6 19 -14 25
-12 10 -17 8 -25 -7z"/>
<path d="M2815 355 c-3 -8 -7 -21 -9 -28 -2 -7 4 -14 15 -14 19 -2 35 29 24
47 -9 15 -25 12 -30 -5z"/>
<path d="M1681 346 c-8 -10 -6 -17 8 -30 17 -15 19 -15 25 -1 9 25 7 32 -8 38
-8 3 -19 0 -25 -7z"/>
<path d="M2025 351 c-2 -5 2 -16 9 -27 12 -16 16 -16 30 -5 12 10 14 17 7 24
-14 14 -39 18 -46 8z"/>
<path d="M2616 345 c-19 -20 -17 -39 6 -43 19 -4 31 24 20 45 -8 13 -11 13
-26 -2z"/>
<path d="M2713 344 c-7 -19 11 -39 26 -30 16 10 13 33 -4 40 -9 3 -18 -1 -22
-10z"/>
<path d="M2493 324 c-6 -16 14 -36 31 -31 18 6 16 22 -4 35 -17 10 -21 10 -27
-4z"/>
<path d="M1846 293 c-4 -9 -1 -23 7 -30 12 -12 16 -12 27 1 10 13 10 19 0 31
-16 19 -26 19 -34 -2z"/>
<path d="M1961 297 c-15 -18 9 -40 33 -31 17 6 18 27 2 24 -5 -1 -12 3 -16 10
-5 8 -10 7 -19 -3z"/>
<path d="M2778 305 c-6 -42 -4 -63 8 -58 21 8 26 35 9 52 -8 8 -16 11 -17 6z"/>
<path d="M1634 286 c-5 -12 3 -27 22 -46 16 -15 35 -36 43 -45 13 -16 15 -16
23 -1 12 21 -9 49 -29 42 -11 -5 -17 5 -15 25 1 4 -8 15 -18 24 -18 17 -20 17
-26 1z"/>
<path d="M1734 289 c-3 -6 1 -18 10 -27 15 -15 18 -15 26 -2 5 9 5 19 -2 27
-13 16 -25 17 -34 2z"/>
<path d="M2671 281 c-10 -17 -9 -22 4 -27 26 -10 42 13 23 32 -15 15 -17 15
-27 -5z"/>
<path d="M2564 268 c-7 -12 5 -28 21 -28 8 0 13 8 12 18 -1 19 -24 26 -33 10z"/>
<path d="M1790 236 c-10 -13 -10 -19 0 -32 12 -14 15 -14 29 0 14 15 14 17 0
32 -14 14 -17 14 -29 0z"/>
<path d="M1901 236 c-9 -10 -8 -16 3 -26 18 -14 36 -5 36 17 0 13 -3 13 -15 3
-13 -11 -14 -10 -9 4 8 20 0 21 -15 2z"/>
<path d="M2730 221 c0 -25 19 -38 31 -20 12 19 6 33 -14 37 -11 2 -17 -3 -17
-17z"/>
<path d="M1506 221 c-13 -21 9 -47 37 -42 4 0 6 -2 5 -7 -4 -13 13 -52 23 -52
24 0 19 32 -10 62 -17 17 -31 35 -31 40 0 11 -17 10 -24 -1z"/>
<path d="M2626 215 c-3 -8 3 -19 13 -25 23 -12 36 11 18 29 -15 15 -24 14 -31
-4z"/>
<path d="M1843 163 c11 -25 28 -26 35 -3 3 9 -1 11 -11 7 -10 -4 -14 -2 -11 7
3 7 -2 13 -10 13 -11 0 -12 -5 -3 -24z"/>
<path d="M1737 166 c-3 -8 1 -20 9 -27 13 -10 17 -10 25 2 5 8 7 19 6 24 -6
16 -34 17 -40 1z"/>
<path d="M2693 164 c-7 -19 11 -39 27 -29 8 5 7 11 -2 23 -11 13 -11 14 1 7
10 -5 12 -4 7 3 -10 17 -26 15 -33 -4z"/>
<path d="M1790 115 c-11 -14 -10 -19 11 -38 13 -12 20 -18 16 -13 -4 5 -2 15
5 23 9 11 8 17 -4 29 -13 13 -16 13 -28 -1z"/>
<path d="M1601 91 c11 -31 34 -47 45 -30 8 13 -23 59 -41 59 -11 0 -12 -6 -4
-29z"/>
<path d="M1644 45 c-8 -20 8 -38 38 -42 13 -2 18 0 12 4 -7 5 -13 17 -15 27
-5 25 -27 32 -35 11z"/>
<path d="M3060 15 c0 -8 9 -15 20 -15 13 0 18 5 14 15 -4 8 -12 15 -20 15 -8
0 -14 -7 -14 -15z"/>
</g>
</svg>
